<svg class="anatomy-pose" viewBox="0 0 460 490" xmlns="http://www.w3.org/2000/svg" role="img" aria-label="Band Crunch start position"><title>Band Crunch — start position</title><defs><pattern id="pencilStart" width="5" height="5" patternUnits="userSpaceOnUse"><path d="M0 5 5 0" stroke="#534e4a" stroke-width=".3" opacity=".2"/></pattern><linearGradient id="skinShadeStart"><stop stop-color="#f0e9e1"/><stop offset=".5" stop-color="#d5cec7"/><stop offset="1" stop-color="#ebe5de"/></linearGradient><marker id="sketchArrowStart" viewBox="0 0 10 10" refX="8" refY="5" markerWidth="5" markerHeight="5" orient="auto-start-reverse"><path d="M0 0 10 5 0 10z" fill="#d32642"/></marker></defs><style>.skin,.limb{fill:url(#skinShadeStart);stroke:#514b47;stroke-width:1.8;stroke-linejoin:round}.limb{fill:url(#skinShadeStart)}.muscle{fill:#d32642;fill-opacity:.42;stroke:#a62c40;stroke-width:.8}.anatomy{fill:none;stroke:#776f68;stroke-width:1;stroke-linecap:round}.anatomy-fill{fill:url(#pencilStart);stroke:#776f68;stroke-width:.9}.shorts{fill:#545356;stroke:#302f33;stroke-width:1.5}.hair{fill:#514d48}.shoe{fill:#c8c4bf;stroke:#514b47;stroke-width:1.5}.metal{fill:none;stroke:#77777a;stroke-width:6;stroke-linecap:round;stroke-linejoin:round}.pad{fill:none;stroke:#535256;stroke-width:12;stroke-linecap:round}.pad-fill{fill:#565459;stroke:#333;stroke-width:1}.handle{fill:none;stroke:#48474b;stroke-width:5;stroke-linecap:round}.plate{fill:#77767a;stroke:#414046;stroke-width:2}.cable{fill:none;stroke:#58575c;stroke-width:2}.band{fill:none;stroke:#9f4555;stroke-width:4}.stack{fill:#aaa5a0;stroke:#555;stroke-width:1}.arrow{fill:none;stroke:#d32642;stroke-width:3;marker-end:url(#sketchArrowStart)}.ground{stroke:#bdb6ae;stroke-width:1}.caption{font:700 16px system-ui;fill:#383234}</style><rect width="460" height="490" rx="18" fill="#f7f3ed"/><text class="caption" x="24" y="32">START</text><path class="ground" d="M25 442h410"/><path class="limb" d="M203.72097921739024,296.7606255675418L197.06617704952788,397.85145240034495Q205.85145240034493,408.9338229504721 216.93382295047212,400.14854759965505L233.5224480688066,300.206268366507Q220.34453504258101,283.58271254131625 203.72097921739024,296.7606255675418Z"/><path class="anatomy" d="M213.40645659410055,297.8804594772055L205.01323540990558,398.770290480069"/><path class="limb" d="M204.41638260101203,408.66048244838976L291.4498295606072,427.79628946903387Q298.79628946903387,423.5501704393928 294.5501704393928,416.20371053096613L209.58361739898797,389.33951755161024Q197.33951755161024,396.41638260101206 204.41638260101203,408.66048244838976Z"/><path class="anatomy" d="M206.09573391035423,402.3811688569364L292.68996591212147,423.1592578938068"/><path class="shoe" d="M287 417q8-2 13 7l14 5q3 8-8 8h-21z"/><path class="limb" d="M246.58321848539828,283.98757846336093L271.13662141899783,400.64735028692354Q282.64735028692354,408.86337858100217 290.86337858100217,397.35264971307646L276.1733542284049,279.04552760259025Q258.90726092651624,266.7214851614723 246.58321848539828,283.98757846336093Z"/><path class="anatomy" d="M256.2000126018754,282.3814119336105L279.02732428379954,399.3294700573847"/><path class="limb" d="M277.57060026097406,408.39357319820147L341.9423601565844,427.6361439189209Q349.6361439189209,424.0576398434156 346.0576398434156,416.3638560810791L284.42939973902594,389.60642680179853Q271.60642680179853,395.57060026097406 277.57060026097406,408.39357319820147Z"/><path class="anatomy" d="M279.7997100913409,402.2877506193705L343.5884720313169,423.1272287837842"/><path class="shoe" d="M338 417q8-2 13 7l14 5q3 8-8 8h-21z"/><path class="skin" d="M161.18578795374134,175.4342111294677Q183.39731582023245,239.54074769038394 218.62171364309842,298.4834469670244Q243.6884552030541,299.2949071116963 261.3782863569016,281.5165530329756Q246.60268417976755,214.45925230961606 218.81421204625866,152.5657888705323Q186.3115447969459,154.70509288830365 161.18578795374134,175.4342111294677Z"/><g transform="translate(190 164) rotate(-21.644435140713995)"><path class="anatomy-fill" d="M-26 8q12-7 24 3v23q-20 2-26-12zM26 8q-12-7-24 3v23q20 2 26-12z"/><path class="anatomy" d="M0 5v69M-22 35q10 7 20 0M22 35q-10 7-20 0M-18 48h13M5 48h13M-16 61h11M5 61h11"/><path class="muscle" d="M-13 38h26v34h-26z"/><path class="shorts" d="M-23 75h46l4 23-25 4-2-10-2 10-25-4z"/></g><path class="limb" d="M194.11631600660837,152.68381943703002L187.6541424908576,139.11030428979095Q178.56578887053232,135.18578795374137 174.64127253448274,144.27414157406665L179.24446462789422,158.58534776191658Q189.63115447969457,163.07050928883038 194.11631600660837,152.68381943703002Z"/><path class="anatomy" d="M189.28296430852626,154.60181614261816L182.44899450830766,141.17583920350123"/><g transform="translate(175.9838702283944 128.6793529755539) rotate(-21.644435140713995)"><ellipse class="skin" rx="14" ry="19"/><path class="hair" d="M-14-3q-3-24 20-17q10 4 8 15l-5-6-14 2z"/><path class="anatomy" d="M5-3h3m-1 3 3 5-5 1m-5 5h8"/></g><path class="limb" d="M154.3031806811328,166.85343510797432L147.99446743810287,175.7594356207321Q146.7594356207321,187.00553256189713 158.00553256189713,188.2405643792679L168.06839522634988,184.0149871509611Q169.76656397523473,168.55160385685917 154.3031806811328,166.85343510797432Z"/><path class="anatomy" d="M158.77687540832835,172.43093952194502L151.99889348762056,180.7518871241464"/><path class="limb" d="M160.27251858315427,185.3332376839457L179.5453241144714,136.08327355246607Q177.08327355246607,129.4546758855286 170.4546758855286,131.91672644753393L145.72748141684573,178.6667623160543Q149.6667623160543,189.27251858315427 160.27251858315427,185.3332376839457Z"/><path class="anatomy" d="M155.545381504104,183.166633189381L175.9090648228943,134.41665471049322"/><ellipse class="skin" cx="175" cy="134" rx="6" ry="8"/><path class="limb" d="M209.88635003229362,158.99177360904517L233.50700944438907,186.6734434461912Q244.6734434461912,188.49299055561093 246.49299055561093,177.3265565538088L227.7420740602237,146.1398041320194Q212.38822730774578,143.63792685656725 209.88635003229362,158.99177360904517Z"/><path class="anatomy" d="M215.6894603413709,154.81488352901178L238.70140188887783,182.93468868923824"/><path class="limb" d="M247.89115139065714,183.31519189844286L252.93196961916072,134.82199493652678Q248.82199493652678,129.06803038083928 243.06803038083928,133.17800506347322L232.10884860934286,180.68480810155714Q238.68480810155714,189.89115139065714 247.89115139065714,183.31519189844286Z"/><path class="anatomy" d="M242.76190298673,182.460317164455L248.98639392383214,134.16439898730536"/><ellipse class="skin" cx="248" cy="134" rx="6" ry="8"/><circle class="metal" cx="45" cy="55" r="7"/><path class="band" d="M50,55L175,134"/><path class="handle" d="M166,134L184,134"/><path class="band" d="M50,55L248,134"/><path class="handle" d="M239,134L257,134"/><text x="230" y="475" text-anchor="middle" font-family="system-ui" font-size="12" fill="#625c56">Band Crunch · Abs</text></svg>